<svg width="536" height="222" viewBox="0 0 536 222" fill="none" xmlns="http://www.w3.org/2000/svg">
<g filter="url(#filter0_d)">
<rect x="9.35999" y="25.5541" width="514.15" height="171.265" transform="rotate(-0.984532 9.35999 25.5541)" fill="#222222"/>
</g>
<g filter="url(#filter1_d)">
<rect x="4.55176" y="42.8441" width="514.15" height="171.265" transform="rotate(-4.78 4.55176 42.8441)" fill="white"/>
</g>
<path d="M92.8149 174.382C92.9029 175.434 92.7237 176.172 92.2774 176.594C91.9187 176.913 90.4041 177.233 87.7334 177.552C85.1584 177.864 81.6228 178.208 77.1265 178.584L73.2747 132.52L59.2118 133.696L62.8236 176.89C62.9116 177.942 62.7324 178.679 62.2861 179.102C61.9274 179.421 60.4128 179.74 57.7421 180.06C55.1671 180.372 51.6315 180.716 47.1352 181.091L38.9756 83.512C38.8876 82.4597 39.023 81.7741 39.3816 81.4551C39.828 81.0324 41.3386 80.6652 43.9136 80.3536C46.5843 80.0339 50.1677 79.6861 54.6641 79.3101L57.9639 118.772L72.0268 117.596L68.967 81.0042C68.879 79.9519 69.0143 79.2662 69.373 78.9472C69.8193 78.5245 71.33 78.1574 73.9049 77.8457C76.5756 77.5261 80.1591 77.1783 84.6554 76.8023L92.8149 174.382ZM127.731 175.797C120.652 176.389 115.095 175.601 111.06 173.434C107.121 171.259 104.358 168.166 102.77 164.157C101.183 160.147 100.133 155.081 99.6211 148.958L93.7774 79.0741C93.6814 77.9261 93.8606 77.1886 94.3149 76.8616C94.7613 76.4389 95.9371 76.0998 97.8424 75.8441C99.8434 75.5804 103.905 75.1926 110.028 74.6807L116.171 148.152C116.587 153.127 117.505 156.615 118.925 158.615C120.345 160.616 122.872 161.464 126.507 161.16C130.047 160.864 132.821 160.054 134.83 158.73L127.93 76.2182C127.834 75.0702 128.013 74.3327 128.468 74.0057C128.914 73.5831 130.09 73.2439 131.995 72.9883C133.901 72.7326 137.867 72.3528 143.894 71.8488L151.957 168.28C149.965 169.796 146.816 171.311 142.511 172.827C138.207 174.343 133.28 175.333 127.731 175.797ZM211.101 66.229L219.26 163.808C219.348 164.861 219.169 165.598 218.723 166.021C218.268 166.348 216.706 166.671 214.035 166.991C211.364 167.311 207.733 167.662 203.141 168.046L201.555 140.435C201.178 133.626 201.013 127.041 201.059 120.679C201.193 114.214 201.378 108.948 201.616 104.882C201.854 100.816 202.025 98.2486 202.129 97.1803L201.674 96.9293C199.31 111.288 197.615 120.389 196.587 124.232L191.295 143.893C191.16 144.579 190.662 144.958 189.801 145.03L183.2 145.582L174.776 126.056C173.1 122.15 170.012 113.449 165.512 99.9531L165.106 100.276C165.385 101.312 165.98 103.816 166.89 107.786C167.887 111.652 168.937 116.718 170.039 122.984C171.237 129.242 172.124 135.815 172.699 142.703L175.206 167.492C175.294 168.545 175.067 169.286 174.525 169.717C173.975 170.052 172.412 170.375 169.837 170.687C167.262 170.998 163.87 171.33 159.661 171.682L151.501 74.1027C151.397 72.8591 151.573 72.0737 152.027 71.7467C152.473 71.3241 153.175 71.0727 154.131 70.9927L166.185 69.9848L180.641 104.613C182.189 108.144 183.362 111.225 184.16 113.856C185.053 116.478 185.576 118.12 185.728 118.782C185.767 118.104 185.962 116.402 186.312 113.676C186.662 110.949 187.219 107.82 187.984 104.288L195.125 70.4549C195.412 69.2749 195.683 68.4816 195.938 68.0749C196.288 67.6603 196.894 67.4169 197.755 67.345L211.101 66.229ZM241.386 150.543L261.763 148.839C262.083 152.665 262.291 155.731 262.388 158.035C262.484 160.339 262.365 161.794 262.03 162.4C261.783 162.902 261.181 163.193 260.225 163.273L226.646 166.081L218.486 68.5015C218.446 68.0231 218.59 67.4331 218.916 66.7315C219.235 65.9342 219.968 65.4875 221.116 65.3915L255.556 62.5117C255.86 66.147 256.06 69.1166 256.157 71.4206C256.253 73.7246 256.138 75.2274 255.811 75.9291C255.476 76.5351 254.831 76.8781 253.874 76.9581L235.363 78.506L237.415 103.044L254.922 101.58C255.218 105.12 255.418 108.09 255.522 110.489C255.618 112.793 255.507 114.344 255.188 115.141C254.965 115.931 254.423 116.361 253.562 116.433L238.639 117.681L241.386 150.543ZM298.815 61.7845C298.727 60.7322 298.91 60.0425 299.364 59.7155C299.906 59.2848 301.465 58.9137 304.04 58.602C306.615 58.2904 310.102 57.9506 314.503 57.5826L322.662 155.162C322.734 156.023 322.555 156.761 322.125 157.375C321.687 157.893 320.989 158.192 320.033 158.272L307.692 159.304L289.265 122.118C286.242 115.916 282.484 105.537 277.991 90.9812C280.259 103.122 281.8 114.072 282.616 123.83L285.496 158.27C285.584 159.322 285.405 160.06 284.959 160.482C284.504 160.809 282.942 161.133 280.271 161.452C277.696 161.764 274.208 162.104 269.808 162.472L261.648 64.8923C261.488 62.979 262.365 61.9423 264.278 61.7823L276.906 60.7264L295.129 97.2068C298.025 103.034 301.695 112.938 306.14 126.921C303.928 115.449 302.418 104.882 301.61 95.2198L298.815 61.7845ZM323.656 63.8978C323.44 61.3148 323.535 59.5729 323.942 58.6719C324.444 57.7629 325.643 57.1327 327.541 56.7814C329.438 56.4301 333.352 56.0064 339.283 55.5104L347.443 153.09C347.531 154.142 347.352 154.88 346.906 155.302C346.451 155.629 344.889 155.953 342.218 156.272C339.547 156.592 335.964 156.94 331.468 157.316L323.656 63.8978ZM382.218 154.517C375.139 155.109 369.582 154.321 365.547 152.154C361.608 149.979 358.845 146.886 357.257 142.877C355.67 138.867 354.62 133.801 354.108 127.678L348.264 57.794C348.168 56.646 348.347 55.9085 348.802 55.5816C349.248 55.1589 350.424 54.8197 352.329 54.5641C354.33 54.3004 358.392 53.9126 364.515 53.4006L370.658 126.872C371.074 131.847 371.992 135.335 373.412 137.335C374.831 139.336 377.359 140.184 380.994 139.88C384.534 139.584 387.308 138.774 389.317 137.45L382.417 54.9382C382.321 53.7902 382.5 53.0527 382.955 52.7257C383.401 52.3031 384.577 51.9639 386.482 51.7082C388.387 51.4526 392.354 51.0728 398.38 50.5688L406.444 147C404.451 148.516 401.303 150.031 396.998 151.547C392.693 153.063 387.767 154.053 382.218 154.517ZM449.183 46.1762C453.966 45.7762 456.434 46.4851 456.586 48.3027C456.61 48.5897 456.55 49.0282 456.407 49.6182L443.025 90.0419C448.591 94.3933 453.057 101.149 456.424 110.308C459.879 119.364 462.194 130.345 463.369 143.252C463.481 144.591 463.127 145.536 462.306 146.086C461.573 146.533 459.819 146.872 457.044 147.104C453.409 147.408 449.57 147.585 445.528 147.634C444.553 137.118 443.095 128.329 441.156 121.266C439.304 114.1 436.337 108.568 432.254 104.67C430.795 103.347 429.22 102.371 427.53 101.742L431.238 146.083C431.326 147.135 431.146 147.873 430.7 148.296C430.246 148.623 428.683 148.946 426.013 149.266C423.438 149.577 419.854 149.925 415.262 150.309L407.103 52.7295C407.015 51.6772 407.198 50.9875 407.652 50.6605C408.098 50.2379 409.609 49.8707 412.184 49.559C414.855 49.2394 418.486 48.8876 423.078 48.5036L426.546 89.9749L439.09 48.1762C442.47 47.1229 445.835 46.4562 449.183 46.1762Z" fill="#222222"/>
<path d="M91.8149 173.382C91.9029 174.434 91.7238 175.172 91.2774 175.594C90.9188 175.913 89.4041 176.233 86.7335 176.552C84.1585 176.864 80.6228 177.208 76.1265 177.584L72.2747 131.52L58.2118 132.696L61.8236 175.89C61.9116 176.942 61.7324 177.679 61.2861 178.102C60.9274 178.421 59.4128 178.74 56.7421 179.06C54.1671 179.372 50.6315 179.716 46.1352 180.091L37.9757 82.512C37.8877 81.4597 38.023 80.7741 38.3817 80.4551C38.828 80.0324 40.3387 79.6652 42.9136 79.3536C45.5843 79.0339 49.1678 78.6861 53.6641 78.3101L56.9639 117.772L71.0268 116.596L67.967 80.0042C67.879 78.9519 68.0143 78.2662 68.373 77.9472C68.8193 77.5245 70.33 77.1574 72.905 76.8457C75.5756 76.5261 79.1591 76.1783 83.6554 75.8023L91.8149 173.382ZM126.731 174.797C119.652 175.389 114.095 174.601 110.06 172.434C106.121 170.259 103.358 167.166 101.771 163.157C100.183 159.147 99.1331 154.081 98.6211 147.958L92.7774 78.0741C92.6814 76.9261 92.8606 76.1886 93.3149 75.8616C93.7613 75.4389 94.9371 75.0998 96.8424 74.8441C98.8434 74.5804 102.905 74.1926 109.028 73.6807L115.172 147.152C115.587 152.127 116.505 155.615 117.925 157.615C119.345 159.616 121.872 160.464 125.507 160.16C129.047 159.864 131.821 159.054 133.83 157.73L126.93 75.2182C126.834 74.0702 127.013 73.3327 127.468 73.0057C127.914 72.5831 129.09 72.2439 130.995 71.9883C132.901 71.7326 136.867 71.3528 142.894 70.8488L150.957 167.28C148.965 168.796 145.816 170.311 141.511 171.827C137.207 173.343 132.28 174.333 126.731 174.797ZM210.101 65.229L218.26 162.808C218.348 163.861 218.169 164.598 217.723 165.021C217.268 165.348 215.706 165.671 213.035 165.991C210.365 166.311 206.733 166.662 202.141 167.046L200.555 139.435C200.178 132.626 200.013 126.041 200.059 119.679C200.193 113.214 200.378 107.948 200.617 103.882C200.855 99.8158 201.025 97.2486 201.129 96.1803L200.674 95.9293C198.31 110.288 196.615 119.389 195.587 123.232L190.295 142.893C190.16 143.579 189.662 143.958 188.801 144.03L182.2 144.582L173.776 125.056C172.1 121.15 169.012 112.449 164.512 98.9531L164.106 99.2761C164.385 100.312 164.98 102.816 165.89 106.786C166.887 110.652 167.937 115.718 169.039 121.984C170.237 128.242 171.124 134.815 171.7 141.703L174.206 166.492C174.294 167.545 174.067 168.286 173.525 168.717C172.975 169.052 171.412 169.375 168.837 169.687C166.262 169.998 162.87 170.33 158.661 170.682L150.501 73.1027C150.397 71.8591 150.573 71.0737 151.027 70.7467C151.473 70.3241 152.175 70.0727 153.131 69.9927L165.185 68.9848L179.641 103.613C181.189 107.144 182.362 110.225 183.16 112.856C184.053 115.478 184.576 117.12 184.728 117.782C184.767 117.104 184.962 115.402 185.312 112.676C185.662 109.949 186.219 106.82 186.984 103.288L194.125 69.4549C194.412 68.2749 194.683 67.4816 194.938 67.0749C195.288 66.6603 195.894 66.4169 196.755 66.345L210.101 65.229ZM240.386 149.543L260.763 147.839C261.083 151.665 261.291 154.731 261.388 157.035C261.484 159.339 261.365 160.794 261.03 161.4C260.783 161.902 260.181 162.193 259.225 162.273L225.646 165.081L217.486 67.5015C217.446 67.0231 217.59 66.4331 217.916 65.7315C218.235 64.9342 218.968 64.4875 220.116 64.3915L254.556 61.5117C254.86 65.147 255.06 68.1166 255.157 70.4206C255.253 72.7246 255.138 74.2274 254.811 74.9291C254.476 75.5351 253.831 75.8781 252.874 75.9581L234.363 77.506L236.415 102.044L253.922 100.58C254.218 104.12 254.418 107.09 254.522 109.489C254.618 111.793 254.507 113.344 254.188 114.141C253.965 114.931 253.423 115.361 252.562 115.433L237.639 116.681L240.386 149.543ZM297.815 60.7845C297.727 59.7322 297.91 59.0425 298.364 58.7155C298.906 58.2848 300.465 57.9137 303.04 57.602C305.615 57.2904 309.102 56.9506 313.503 56.5826L321.663 154.162C321.735 155.023 321.555 155.761 321.125 156.375C320.687 156.893 319.989 157.192 319.033 157.272L306.692 158.304L288.265 121.118C285.242 114.916 281.484 104.537 276.991 89.9812C279.259 102.122 280.8 113.072 281.616 122.83L284.496 157.27C284.584 158.322 284.405 159.06 283.959 159.482C283.504 159.809 281.942 160.133 279.271 160.452C276.696 160.764 273.208 161.104 268.808 161.472L260.648 63.8923C260.488 61.979 261.365 60.9423 263.278 60.7823L275.906 59.7264L294.129 96.2068C297.025 102.034 300.695 111.938 305.14 125.921C302.928 114.449 301.418 103.882 300.61 94.2198L297.815 60.7845ZM322.656 62.8978C322.44 60.3148 322.535 58.5729 322.942 57.6719C323.444 56.7629 324.643 56.1327 326.541 55.7814C328.438 55.4301 332.352 55.0064 338.284 54.5104L346.443 152.09C346.531 153.142 346.352 153.88 345.906 154.302C345.451 154.629 343.889 154.953 341.218 155.272C338.547 155.592 334.964 155.94 330.468 156.316L322.656 62.8978ZM381.218 153.517C374.139 154.109 368.582 153.321 364.547 151.154C360.608 148.979 357.845 145.886 356.257 141.877C354.67 137.867 353.62 132.801 353.108 126.678L347.264 56.794C347.168 55.646 347.347 54.9085 347.802 54.5816C348.248 54.1589 349.424 53.8197 351.329 53.5641C353.33 53.3004 357.392 52.9126 363.515 52.4006L369.658 125.872C370.074 130.847 370.992 134.335 372.412 136.335C373.831 138.336 376.359 139.184 379.994 138.88C383.534 138.584 386.308 137.774 388.317 136.45L381.417 53.9382C381.321 52.7902 381.5 52.0527 381.955 51.7257C382.401 51.3031 383.577 50.9639 385.482 50.7082C387.387 50.4526 391.354 50.0728 397.381 49.5688L405.444 146C403.451 147.516 400.303 149.031 395.998 150.547C391.693 152.063 386.767 153.053 381.218 153.517ZM448.183 45.1762C452.966 44.7762 455.434 45.4851 455.586 47.3027C455.61 47.5897 455.55 48.0282 455.407 48.6182L442.025 89.0419C447.591 93.3933 452.057 100.149 455.424 109.308C458.879 118.364 461.194 129.345 462.369 142.252C462.481 143.591 462.127 144.536 461.306 145.086C460.573 145.533 458.819 145.872 456.044 146.104C452.409 146.408 448.57 146.585 444.529 146.634C443.553 136.118 442.095 127.329 440.156 120.266C438.305 113.1 435.337 107.568 431.254 103.67C429.795 102.347 428.22 101.371 426.53 100.742L430.238 145.083C430.326 146.135 430.146 146.873 429.7 147.296C429.246 147.623 427.683 147.946 425.013 148.266C422.438 148.577 418.854 148.925 414.262 149.309L406.103 51.7295C406.015 50.6772 406.198 49.9875 406.652 49.6605C407.098 49.2379 408.609 48.8707 411.184 48.559C413.855 48.2394 417.486 47.8876 422.078 47.5036L425.546 88.9749L438.09 47.1762C441.47 46.1229 444.835 45.4562 448.183 45.1762Z" fill="white"/>
<path d="M90.8149 172.382C90.9029 173.434 90.7238 174.172 90.2774 174.594C89.9188 174.913 88.4041 175.233 85.7335 175.552C83.1585 175.864 79.6228 176.208 75.1265 176.584L71.2747 130.52L57.2118 131.696L60.8236 174.89C60.9116 175.942 60.7324 176.679 60.2861 177.102C59.9274 177.421 58.4128 177.74 55.7421 178.06C53.1671 178.372 49.6315 178.716 45.1352 179.091L36.9757 81.512C36.8877 80.4597 37.023 79.7741 37.3817 79.4551C37.828 79.0324 39.3387 78.6652 41.9136 78.3536C44.5843 78.0339 48.1678 77.6861 52.6641 77.3101L55.9639 116.772L70.0268 115.596L66.967 79.0042C66.879 77.9519 67.0143 77.2662 67.373 76.9472C67.8193 76.5245 69.33 76.1574 71.905 75.8457C74.5756 75.5261 78.1591 75.1783 82.6554 74.8023L90.8149 172.382ZM125.731 173.797C118.652 174.389 113.095 173.601 109.06 171.434C105.121 169.259 102.358 166.166 100.771 162.157C99.1829 158.147 98.1331 153.081 97.6211 146.958L91.7774 77.0741C91.6814 75.9261 91.8606 75.1886 92.3149 74.8616C92.7613 74.4389 93.9371 74.0998 95.8424 73.8441C97.8434 73.5804 101.905 73.1926 108.028 72.6807L114.172 146.152C114.587 151.127 115.505 154.615 116.925 156.615C118.345 158.616 120.872 159.464 124.507 159.16C128.047 158.864 130.821 158.054 132.83 156.73L125.93 74.2182C125.834 73.0702 126.013 72.3327 126.468 72.0057C126.914 71.5831 128.09 71.2439 129.995 70.9883C131.901 70.7326 135.867 70.3528 141.894 69.8488L149.957 166.28C147.965 167.796 144.816 169.311 140.511 170.827C136.207 172.343 131.28 173.333 125.731 173.797ZM209.101 64.229L217.26 161.808C217.348 162.861 217.169 163.598 216.723 164.021C216.268 164.348 214.706 164.671 212.035 164.991C209.365 165.311 205.733 165.662 201.141 166.046L199.555 138.435C199.178 131.626 199.013 125.041 199.059 118.679C199.193 112.214 199.378 106.948 199.617 102.882C199.855 98.8158 200.025 96.2486 200.129 95.1803L199.674 94.9293C197.31 109.288 195.615 118.389 194.587 122.232L189.295 141.893C189.16 142.579 188.662 142.958 187.801 143.03L181.2 143.582L172.776 124.056C171.1 120.15 168.012 111.449 163.512 97.9531L163.106 98.2761C163.385 99.3124 163.98 101.816 164.89 105.786C165.887 109.652 166.937 114.718 168.039 120.984C169.237 127.242 170.124 133.815 170.7 140.703L173.206 165.492C173.294 166.545 173.067 167.286 172.525 167.717C171.975 168.052 170.412 168.375 167.837 168.687C165.262 168.998 161.87 169.33 157.661 169.682L149.501 72.1027C149.397 70.8591 149.573 70.0737 150.027 69.7467C150.473 69.3241 151.175 69.0727 152.131 68.9927L164.185 67.9848L178.641 102.613C180.189 106.144 181.362 109.225 182.16 111.856C183.053 114.478 183.576 116.12 183.728 116.782C183.767 116.104 183.962 114.402 184.312 111.676C184.662 108.949 185.219 105.82 185.984 102.288L193.125 68.4549C193.412 67.2749 193.683 66.4816 193.938 66.0749C194.288 65.6603 194.894 65.4169 195.755 65.345L209.101 64.229ZM239.386 148.543L259.763 146.839C260.083 150.665 260.291 153.731 260.388 156.035C260.484 158.339 260.365 159.794 260.03 160.4C259.783 160.902 259.181 161.193 258.225 161.273L224.646 164.081L216.486 66.5015C216.446 66.0231 216.59 65.4331 216.916 64.7315C217.235 63.9342 217.968 63.4875 219.116 63.3915L253.556 60.5117C253.86 64.147 254.06 67.1166 254.157 69.4206C254.253 71.7246 254.138 73.2274 253.811 73.9291C253.476 74.5351 252.831 74.8781 251.874 74.9581L233.363 76.506L235.415 101.044L252.922 99.5804C253.218 103.12 253.418 106.09 253.522 108.489C253.618 110.793 253.507 112.344 253.188 113.141C252.965 113.931 252.423 114.361 251.562 114.433L236.639 115.681L239.386 148.543ZM296.815 59.7845C296.727 58.7322 296.91 58.0425 297.364 57.7155C297.906 57.2848 299.465 56.9137 302.04 56.602C304.615 56.2904 308.102 55.9506 312.503 55.5826L320.663 153.162C320.735 154.023 320.555 154.761 320.125 155.375C319.687 155.893 318.989 156.192 318.033 156.272L305.692 157.304L287.265 120.118C284.242 113.916 280.484 103.537 275.991 88.9812C278.259 101.122 279.8 112.072 280.616 121.83L283.496 156.27C283.584 157.322 283.405 158.06 282.959 158.482C282.504 158.809 280.942 159.133 278.271 159.452C275.696 159.764 272.208 160.104 267.808 160.472L259.648 62.8923C259.488 60.979 260.365 59.9423 262.278 59.7823L274.906 58.7264L293.129 95.2068C296.025 101.034 299.695 110.938 304.14 124.921C301.928 113.449 300.418 102.882 299.61 93.2198L296.815 59.7845ZM321.656 61.8978C321.44 59.3148 321.535 57.5729 321.942 56.6719C322.444 55.7629 323.643 55.1327 325.541 54.7814C327.438 54.4301 331.352 54.0064 337.284 53.5104L345.443 151.09C345.531 152.142 345.352 152.88 344.906 153.302C344.451 153.629 342.889 153.953 340.218 154.272C337.547 154.592 333.964 154.94 329.468 155.316L321.656 61.8978ZM380.218 152.517C373.139 153.109 367.582 152.321 363.547 150.154C359.608 147.979 356.845 144.886 355.257 140.877C353.67 136.867 352.62 131.801 352.108 125.678L346.264 55.794C346.168 54.646 346.347 53.9085 346.802 53.5816C347.248 53.1589 348.424 52.8197 350.329 52.5641C352.33 52.3004 356.392 51.9126 362.515 51.4006L368.658 124.872C369.074 129.847 369.992 133.335 371.412 135.335C372.831 137.336 375.359 138.184 378.994 137.88C382.534 137.584 385.308 136.774 387.317 135.45L380.417 52.9382C380.321 51.7902 380.5 51.0527 380.955 50.7257C381.401 50.3031 382.577 49.9639 384.482 49.7082C386.387 49.4526 390.354 49.0728 396.381 48.5688L404.444 145C402.451 146.516 399.303 148.031 394.998 149.547C390.693 151.063 385.767 152.053 380.218 152.517ZM447.183 44.1762C451.966 43.7762 454.434 44.4851 454.586 46.3027C454.61 46.5897 454.55 47.0282 454.407 47.6182L441.025 88.0419C446.591 92.3933 451.057 99.1486 454.424 108.308C457.879 117.364 460.194 128.345 461.369 141.252C461.481 142.591 461.127 143.536 460.306 144.086C459.573 144.533 457.819 144.872 455.044 145.104C451.409 145.408 447.57 145.585 443.529 145.634C442.553 135.118 441.095 126.329 439.156 119.266C437.305 112.1 434.337 106.568 430.254 102.67C428.795 101.347 427.22 100.371 425.53 99.7418L429.238 144.083C429.326 145.135 429.146 145.873 428.7 146.296C428.246 146.623 426.683 146.946 424.013 147.266C421.438 147.577 417.854 147.925 413.262 148.309L405.103 50.7295C405.015 49.6772 405.198 48.9875 405.652 48.6605C406.098 48.2379 407.609 47.8707 410.184 47.559C412.855 47.2394 416.486 46.8876 421.078 46.5036L424.546 87.9749L437.09 46.1762C440.47 45.1229 443.835 44.4562 447.183 44.1762Z" fill="#222222"/>
<path d="M471.526 146.318C470.593 146.396 469.919 146.247 469.502 145.873C469.083 145.474 468.838 144.845 468.766 143.984C468.706 143.266 468.882 142.637 469.295 142.097C469.731 141.555 470.332 141.252 471.097 141.188C472.006 141.112 472.671 141.285 473.091 141.707C473.51 142.106 473.754 142.724 473.824 143.561C473.884 144.278 473.708 144.907 473.296 145.447C472.905 145.962 472.315 146.252 471.526 146.318ZM479.379 145.769C478.351 145.855 477.557 145.729 476.999 145.39C476.441 145.052 476.036 144.532 475.785 143.83C475.534 143.129 475.359 142.192 475.261 141.02L474.436 131.155L472.248 131.338C472.156 130.237 472.104 129.471 472.091 129.039C472.079 128.606 472.115 128.314 472.199 128.163C472.306 128.009 472.504 127.92 472.791 127.896L474.154 127.782L473.719 122.58C473.683 122.15 473.766 121.842 473.967 121.657C474.168 121.471 474.507 121.347 474.983 121.283C475.481 121.193 476.352 121.096 477.596 120.992L478.136 127.449L481.078 127.203C481.172 128.327 481.225 129.106 481.237 129.538C481.247 129.947 481.198 130.228 481.091 130.381C481.007 130.533 480.834 130.62 480.571 130.642L478.418 130.822L479.237 140.615C479.285 141.189 479.37 141.628 479.491 141.931C479.611 142.21 479.862 142.333 480.245 142.301C480.843 142.251 481.452 142.044 482.071 141.679C482.305 142.454 482.442 143.081 482.482 143.559C482.59 144.851 481.555 145.587 479.379 145.769ZM489.59 141.014C490.738 140.918 491.977 140.477 493.308 139.692C493.584 140.391 493.765 141.267 493.853 142.319C493.911 143.013 493.467 143.604 492.52 144.093C491.596 144.555 490.404 144.848 488.945 144.97C487.151 145.12 485.725 144.625 484.666 143.485C483.606 142.321 482.942 140.149 482.676 136.968C482.448 134.242 482.546 132.102 482.971 130.549C483.419 128.995 484.075 127.916 484.94 127.314C485.805 126.712 486.871 126.358 488.138 126.252C491.2 125.996 492.893 127.817 493.219 131.715C493.393 133.796 493.368 135.508 493.143 136.852C491.804 137.253 489.737 137.594 486.943 137.876C487.117 139.089 487.392 139.933 487.769 140.408C488.146 140.882 488.752 141.084 489.59 141.014ZM487.924 129.738C487.374 129.784 487 130.212 486.803 131.024C486.63 131.833 486.59 133.076 486.682 134.755C488.021 134.643 488.909 134.46 489.345 134.207C489.435 133.838 489.443 133.211 489.369 132.326C489.277 131.226 489.133 130.516 488.938 130.195C488.74 129.85 488.402 129.698 487.924 129.738ZM501.061 143.956C499.769 144.064 498.721 143.911 497.916 143.497C497.134 143.081 496.499 142.255 496.01 141.019C495.544 139.758 495.208 137.907 495.004 135.468C494.78 132.789 494.907 130.707 495.385 129.222C495.887 127.735 496.573 126.726 497.444 126.196C498.337 125.64 499.381 125.312 500.577 125.212C501.462 125.138 502.194 125.245 502.772 125.534C503.348 125.799 503.66 126.218 503.708 126.792C503.768 127.51 503.707 128.225 503.526 128.939C503.205 128.845 502.825 128.769 502.387 128.709C501.972 128.647 501.586 128.631 501.227 128.661C500.438 128.727 499.838 129.187 499.427 130.04C499.041 130.891 498.952 132.561 499.16 135.048C499.28 136.483 499.445 137.589 499.654 138.366C499.862 139.12 500.147 139.65 500.51 139.956C500.896 140.261 501.413 140.387 502.058 140.333C502.441 140.301 502.844 140.219 503.266 140.087C503.689 139.956 504.037 139.806 504.312 139.638C504.6 140.481 504.765 141.166 504.809 141.692C504.859 142.29 504.528 142.799 503.817 143.22C503.128 143.615 502.209 143.86 501.061 143.956ZM504.605 118.517C504.555 117.919 504.617 117.504 504.79 117.273C504.985 117.016 505.32 116.843 505.794 116.755C506.291 116.642 507.172 116.532 508.44 116.426L509.22 125.753C509.593 125.313 510.081 124.959 510.685 124.691C511.312 124.422 511.937 124.262 512.559 124.21C513.874 124.1 514.777 124.385 515.268 125.067C515.782 125.746 516.108 126.911 516.246 128.561L517.329 141.512C517.351 141.775 517.283 141.962 517.123 142.071C516.986 142.155 516.583 142.237 515.916 142.317C515.248 142.397 514.364 142.483 513.264 142.575L512.226 130.162C512.166 129.445 512.048 128.9 511.873 128.53C511.697 128.159 511.37 127.994 510.892 128.034C510.39 128.076 509.912 128.272 509.46 128.623L510.585 142.076C510.607 142.339 510.562 142.524 510.451 142.629C510.337 142.711 509.958 142.791 509.315 142.869C508.671 142.947 507.787 143.033 506.663 143.127L504.605 118.517Z" fill="white"/>
<path d="M470.363 144.408C469.43 144.486 468.755 144.338 468.339 143.963C467.92 143.565 467.675 142.935 467.603 142.074C467.543 141.356 467.719 140.728 468.131 140.187C468.568 139.645 469.169 139.342 469.934 139.278C470.843 139.202 471.507 139.375 471.928 139.798C472.347 140.196 472.591 140.814 472.661 141.651C472.721 142.368 472.545 142.997 472.132 143.538C471.742 144.052 471.152 144.342 470.363 144.408ZM478.216 143.86C477.187 143.946 476.394 143.819 475.836 143.481C475.278 143.142 474.873 142.622 474.622 141.921C474.37 141.219 474.196 140.282 474.098 139.11L473.273 129.245L471.084 129.428C470.992 128.328 470.94 127.561 470.928 127.129C470.916 126.696 470.952 126.404 471.036 126.253C471.143 126.099 471.341 126.011 471.628 125.987L472.991 125.873L472.556 120.671C472.52 120.24 472.602 119.932 472.804 119.747C473.005 119.561 473.344 119.437 473.82 119.373C474.318 119.283 475.189 119.186 476.433 119.082L476.973 125.54L479.915 125.294C480.009 126.418 480.062 127.196 480.074 127.628C480.084 128.037 480.035 128.318 479.927 128.472C479.844 128.623 479.67 128.71 479.407 128.732L477.255 128.912L478.074 138.706C478.122 139.28 478.207 139.718 478.328 140.021C478.448 140.3 478.699 140.424 479.082 140.392C479.68 140.342 480.289 140.134 480.908 139.769C481.142 140.544 481.278 141.171 481.318 141.65C481.426 142.941 480.392 143.678 478.216 143.86ZM488.426 139.104C489.574 139.008 490.814 138.568 492.145 137.782C492.42 138.481 492.602 139.357 492.69 140.41C492.748 141.103 492.304 141.694 491.357 142.183C490.432 142.646 489.241 142.938 487.782 143.06C485.988 143.21 484.562 142.715 483.503 141.575C482.442 140.412 481.779 138.239 481.513 135.058C481.285 132.332 481.383 130.192 481.807 128.64C482.255 127.085 482.912 126.006 483.777 125.404C484.641 124.802 485.708 124.448 486.975 124.342C490.036 124.086 491.73 125.907 492.056 129.806C492.23 131.886 492.205 133.598 491.98 134.942C490.641 135.343 488.574 135.684 485.78 135.966C485.953 137.18 486.229 138.024 486.606 138.498C486.982 138.972 487.589 139.174 488.426 139.104ZM486.761 127.828C486.211 127.874 485.837 128.303 485.64 129.114C485.467 129.923 485.427 131.167 485.519 132.845C486.858 132.733 487.746 132.55 488.182 132.297C488.272 131.928 488.28 131.301 488.206 130.417C488.114 129.316 487.97 128.606 487.775 128.285C487.577 127.94 487.239 127.788 486.761 127.828ZM499.898 142.047C498.606 142.155 497.558 142.002 496.752 141.587C495.971 141.171 495.336 140.345 494.847 139.109C494.381 137.848 494.045 135.997 493.841 133.558C493.617 130.879 493.744 128.797 494.222 127.312C494.724 125.825 495.41 124.817 496.281 124.286C497.174 123.73 498.218 123.402 499.414 123.302C500.299 123.228 501.03 123.335 501.608 123.624C502.184 123.889 502.497 124.308 502.545 124.882C502.605 125.6 502.544 126.315 502.363 127.029C502.042 126.935 501.662 126.859 501.224 126.799C500.809 126.738 500.422 126.722 500.064 126.752C499.274 126.818 498.675 127.277 498.264 128.13C497.878 128.982 497.789 130.651 497.997 133.138C498.117 134.573 498.281 135.679 498.491 136.456C498.698 137.21 498.984 137.74 499.346 138.047C499.733 138.352 500.249 138.477 500.895 138.423C501.278 138.391 501.68 138.309 502.103 138.177C502.525 138.046 502.874 137.896 503.149 137.729C503.436 138.572 503.602 139.256 503.646 139.782C503.696 140.38 503.365 140.89 502.654 141.31C501.964 141.705 501.046 141.951 499.898 142.047ZM503.442 116.607C503.392 116.009 503.453 115.594 503.627 115.363C503.822 115.106 504.157 114.934 504.631 114.846C505.127 114.732 506.009 114.622 507.277 114.516L508.057 123.843C508.429 123.403 508.918 123.049 509.521 122.782C510.149 122.513 510.774 122.352 511.396 122.3C512.711 122.19 513.614 122.476 514.105 123.157C514.619 123.837 514.945 125.002 515.083 126.652L516.166 139.603C516.188 139.866 516.12 140.052 515.96 140.162C515.823 140.245 515.42 140.327 514.752 140.407C514.085 140.487 513.201 140.573 512.101 140.665L511.063 128.252C511.003 127.535 510.885 126.991 510.709 126.62C510.534 126.249 510.207 126.084 509.729 126.124C509.226 126.166 508.749 126.363 508.297 126.713L509.422 140.167C509.444 140.43 509.399 140.614 509.287 140.72C509.174 140.801 508.795 140.881 508.151 140.959C507.508 141.037 506.624 141.123 505.5 141.217L503.442 116.607Z" fill="#222222"/>
<defs>
<filter id="filter0_d" x="5.35999" y="16.7197" width="525.017" height="188.074" filterUnits="userSpaceOnUse" color-interpolation-filters="sRGB">
<feFlood flood-opacity="0" result="BackgroundImageFix"/>
<feColorMatrix in="SourceAlpha" type="matrix" values="0 0 0 0 0 0 0 0 0 0 0 0 0 0 0 0 0 0 127 0"/>
<feOffset dy="4"/>
<feGaussianBlur stdDeviation="2"/>
<feColorMatrix type="matrix" values="0 0 0 0 0 0 0 0 0 0 0 0 0 0 0 0 0 0 0.25 0"/>
<feBlend mode="normal" in2="BackgroundImageFix" result="effect1_dropShadow"/>
<feBlend mode="normal" in="SourceGraphic" in2="effect1_dropShadow" result="shape"/>
</filter>
<filter id="filter1_d" x="0.551758" y="0" width="534.634" height="221.513" filterUnits="userSpaceOnUse" color-interpolation-filters="sRGB">
<feFlood flood-opacity="0" result="BackgroundImageFix"/>
<feColorMatrix in="SourceAlpha" type="matrix" values="0 0 0 0 0 0 0 0 0 0 0 0 0 0 0 0 0 0 127 0"/>
<feOffset dy="4"/>
<feGaussianBlur stdDeviation="2"/>
<feColorMatrix type="matrix" values="0 0 0 0 0 0 0 0 0 0 0 0 0 0 0 0 0 0 0.25 0"/>
<feBlend mode="normal" in2="BackgroundImageFix" result="effect1_dropShadow"/>
<feBlend mode="normal" in="SourceGraphic" in2="effect1_dropShadow" result="shape"/>
</filter>
</defs>
</svg>
